<mxfile host="65bd71144e">
    <diagram id="P7fbHu50QUqiONqeiYRJ" name="Page-1">
        <mxGraphModel dx="976" dy="599" grid="1" gridSize="10" guides="1" tooltips="1" connect="1" arrows="1" fold="1" page="1" pageScale="1" pageWidth="850" pageHeight="1100" math="0" shadow="0">
            <root>
                <mxCell id="0"/>
                <mxCell id="1" parent="0"/>
                <mxCell id="4" style="edgeStyle=none;html=1;entryX=0;entryY=0.5;entryDx=0;entryDy=0;" edge="1" parent="1" source="2" target="3">
                    <mxGeometry relative="1" as="geometry"/>
                </mxCell>
                <mxCell id="2" value="Opleiding" style="rounded=1;whiteSpace=wrap;html=1;" vertex="1" parent="1">
                    <mxGeometry x="210" y="240" width="180" height="60" as="geometry"/>
                </mxCell>
                <mxCell id="3" value="Gegevens" style="rounded=1;whiteSpace=wrap;html=1;" vertex="1" parent="1">
                    <mxGeometry x="490" y="240" width="180" height="60" as="geometry"/>
                </mxCell>
                <mxCell id="5" value="Omschrijving" style="rounded=1;whiteSpace=wrap;html=1;" vertex="1" parent="1">
                    <mxGeometry x="230" y="300" width="140" height="60" as="geometry"/>
                </mxCell>
                <mxCell id="6" value="Slaag percentage" style="rounded=1;whiteSpace=wrap;html=1;" vertex="1" parent="1">
                    <mxGeometry x="230" y="360" width="140" height="60" as="geometry"/>
                </mxCell>
                <mxCell id="7" value="Benodigheden" style="rounded=1;whiteSpace=wrap;html=1;" vertex="1" parent="1">
                    <mxGeometry x="230" y="420" width="140" height="60" as="geometry"/>
                </mxCell>
                <mxCell id="8" value="Naam" style="rounded=1;whiteSpace=wrap;html=1;" vertex="1" parent="1">
                    <mxGeometry x="510" y="300" width="140" height="60" as="geometry"/>
                </mxCell>
                <mxCell id="9" value="Achternaam" style="rounded=1;whiteSpace=wrap;html=1;" vertex="1" parent="1">
                    <mxGeometry x="510" y="360" width="140" height="60" as="geometry"/>
                </mxCell>
                <mxCell id="10" value="Leeftijd" style="rounded=1;whiteSpace=wrap;html=1;" vertex="1" parent="1">
                    <mxGeometry x="510" y="420" width="140" height="60" as="geometry"/>
                </mxCell>
                <mxCell id="11" value="E-mail" style="rounded=1;whiteSpace=wrap;html=1;" vertex="1" parent="1">
                    <mxGeometry x="510" y="480" width="140" height="60" as="geometry"/>
                </mxCell>
                <mxCell id="12" value="Wachtwoord" style="rounded=1;whiteSpace=wrap;html=1;" vertex="1" parent="1">
                    <mxGeometry x="510" y="540" width="140" height="60" as="geometry"/>
                </mxCell>
            </root>
        </mxGraphModel>
    </diagram>
</mxfile>